<?xml version="1.0" encoding="UTF-8"?>
<svg version="1.1" viewBox="0 0 847 862" width="847" height="862" xmlns="http://www.w3.org/2000/svg">
<path transform="translate(0)" d="m0 0h847v862h-847z" fill="#1A1E22"/>
<path transform="translate(419,131)" d="m0 0h18l27 2 24 4 25 6 26 9 20 9 23 12 18 12 12 9 11 9 12 11 6 5 7 8 11 12 13 17 14 21 13 24 11 26 7 21 7 30 3 22 1 12v40l-3 26-5 26-8 26-6 16-11 24-12 21-11 16-10 13-12 14-7 7-4 5-8 7-12 11-20 15-19 12-12 7-21 10-21 8-4 1h-8l-6-3-4-5-1-2-1-101-4-18-8-16-6-8 9-2 26-5 17-5 21-9 11-7 10-8 7-6 11-14 9-16 7-19 5-23 2-22v-21l-2-16-6-21-10-19-10-13-2-4 4-15 1-6v-25l-3-16-5-15-1-1h-12l-14 3-21 8-19 10-14 9-9-1-25-5-18-2-16-1h-16l-27 2-24 4-13 3h-5l-16-10-19-10-19-7-15-3h-12l-3 11-4 18-1 20 2 17 3 11-1 4-9 12-8 14-6 15-4 16-1 8v34l3 22 5 20 8 19 8 13 9 11 9 9 18 12 17 8 18 6 24 5 14 2v3l-6 8-6 12-5 18-8 4-18 4h-16l-12-3-9-4-11-8-7-7-13-19-5-5v-2l-4-2-9-7-9-4-4-1h-17l-4 2v5l4 5 12 8 6 5 11 15 8 14 9 19 11 12 10 6 15 5 11 2h29l19-2v59l-3 7-6 4-3 1h-7l-18-6-20-9-21-11-27-18-16-13-10-9-21-21-9-11-12-16-11-17-13-24-10-23-8-24-5-20-4-24-2-20v-39l3-27 5-25 7-25 10-25 9-19 13-22 12-17 8-10 11-13 23-23 11-9 13-10 15-10 19-11 25-12 28-10 23-6 22-4 17-2z" fill="#FEFEFE"/>
</svg>
