<?xml version="1.0" encoding="UTF-8"?>
<svg version="1.1" viewBox="0 0 935 866" width="935" height="866" xmlns="http://www.w3.org/2000/svg">
<path transform="translate(0)" d="m0 0h935v866h-935z" fill="#0263C5"/>
<path transform="translate(606,339)" d="m0 0h42l23 4 24 8 19 10 11 7 16 12 10 9 8 10 11 18 11 23 7 19 5 20 2 18v291h-134l-1-244-4-21-6-18-8-16-7-9-5-5-8-7-15-7-14-3h-19l-18 4-13 5-16 9-11 9-8 9-8 13-6 15-4 18-1 6-1 242h-133v-441h126l1 61 12-14 9-9 11-9 14-10 18-10 20-8 21-6z" fill="#FDFDFD"/>
<path transform="translate(143,347)" d="m0 0h136v441h-137v-440z" fill="#FDFDFD"/>
<path transform="translate(203,124)" d="m0 0h15l18 4 13 6 11 7 12 12 9 14 5 12 3 13v21l-4 16-6 13-7 10-9 10-13 9-10 5-13 4-6 1h-21l-16-4-16-8-9-7-11-11-8-13-5-13-2-8-1-9v-11l3-16 5-13 7-12 11-12 12-9 13-6 9-3z" fill="#FDFDFD"/>
</svg>
